/* XPM */
static char *processor_png[] = {
/* columns rows colors chars-per-pixel */
"16 16 78 1 ",
"  c #1D1D1D",
". c #003200",
"X c #003300",
"o c #013E01",
"O c #2D2D2D",
"+ c #322E26",
"@ c #323232",
"# c gray22",
"$ c #3C3C3C",
"% c #3E3E3E",
"& c #3F3F3F",
"* c #024D02",
"= c #025302",
"- c #025702",
"; c #025B02",
": c #025F02",
"> c #1E5D1E",
", c #026302",
"< c #026602",
"1 c #036903",
"2 c #036D03",
"3 c #036F03",
"4 c #037203",
"5 c #037403",
"6 c #037603",
"7 c #236223",
"8 c #276727",
"9 c #2C6C2C",
"0 c #307030",
"q c gray25",
"w c #444444",
"e c #464646",
"r c gray28",
"t c #4E4E4E",
"y c gray31",
"u c #524F47",
"i c gray34",
"p c #5D5D5D",
"a c gray38",
"s c #2E832E",
"d c #318631",
"f c #328732",
"g c #338833",
"h c #398E39",
"j c #3C913C",
"k c #3D923D",
"l c #439843",
"z c #449944",
"x c #489D48",
"c c #4A9F4A",
"v c #4CA14C",
"b c #51A651",
"n c #53A853",
"m c #57AC57",
"M c #59AE59",
"N c #5BB05B",
"B c #5CB15C",
"V c #60B560",
"C c #64B964",
"Z c #68BD68",
"A c #6EC36E",
"S c #88A256",
"D c #90AB5E",
"F c #BA9F63",
"G c #98B569",
"H c #BEA368",
"J c #CEAC68",
"K c #D4B672",
"L c #A1C074",
"P c #A9CA7D",
"I c #B0D185",
"U c #D7C589",
"Y c #DACA8E",
"T c #E2C884",
"R c #ECD591",
"E c #F9E6A2",
"W c #FFEEAA",
"Q c None",
/* pixels */
"666666666666666Q",
"5WMAAAAAAAAAMW5Q",
"4mNNInInInINNm4Q",
"3ZMxY0E0E0YxMZ3Q",
"2CPUuwwwwwuUPC2Q",
"1Vc9qapppaq9cV1Q",
"<BLR$ittti$RLB<Q",
",ml8#yeeey#8lm,Q",
":bGT@r%%%r@TGb:Q",
";vj7Ow&&&wO7jv;Q",
"-xDH+     +HDx-Q",
"=zjsF>K>K>Fsjz=Q",
"*ghhSfSfSfShhg*Q",
"oJdkkkkkkkkkdJoQ",
"X.............XQ",
"QQQQQQQQQQQQQQQQ"
};
